<?xml version="1.0" encoding="UTF-8" standalone="no"?>
<!-- Created with Inkscape (http://www.inkscape.org/) -->

<svg
   xmlns:dc="http://purl.org/dc/elements/1.1/"
   xmlns:cc="http://creativecommons.org/ns#"
   xmlns:rdf="http://www.w3.org/1999/02/22-rdf-syntax-ns#"
   xmlns:svg="http://www.w3.org/2000/svg"
   xmlns="http://www.w3.org/2000/svg"
   xmlns:sodipodi="http://sodipodi.sourceforge.net/DTD/sodipodi-0.dtd"
   xmlns:inkscape="http://www.inkscape.org/namespaces/inkscape"
   width="53.400002"
   height="53.000008"
   id="svg5157"
   version="1.1"
   inkscape:version="0.48.4 r9939"
   sodipodi:docname="New document 23">
  <defs
     id="defs5159" />
  <sodipodi:namedview
     id="base"
     pagecolor="#ffffff"
     bordercolor="#666666"
     borderopacity="1.0"
     inkscape:pageopacity="0.0"
     inkscape:pageshadow="2"
     inkscape:zoom="0.35"
     inkscape:cx="26.700001"
     inkscape:cy="26.500004"
     inkscape:document-units="px"
     inkscape:current-layer="layer1"
     showgrid="false"
     fit-margin-top="0"
     fit-margin-left="0"
     fit-margin-right="0"
     fit-margin-bottom="0"
     inkscape:window-width="472"
     inkscape:window-height="383"
     inkscape:window-x="255"
     inkscape:window-y="291"
     inkscape:window-maximized="0" />
  <metadata
     id="metadata5162">
    <rdf:RDF>
      <cc:Work
         rdf:about="">
        <dc:format>image/svg+xml</dc:format>
        <dc:type
           rdf:resource="http://purl.org/dc/dcmitype/StillImage" />
        <dc:title></dc:title>
      </cc:Work>
    </rdf:RDF>
  </metadata>
  <g
     inkscape:label="Layer 1"
     inkscape:groupmode="layer"
     id="layer1"
     transform="translate(-348.3,-505.86218)">
    <g
       transform="translate(131,208.06218)"
       id="g4485">
      <circle
         style="fill:#898989"
         sodipodi:ry="24.700001"
         sodipodi:rx="24.700001"
         sodipodi:cy="326.10001"
         sodipodi:cx="242"
         d="m 266.7,326.10001 c 0,13.64143 -11.05857,24.7 -24.7,24.7 -13.64143,0 -24.7,-11.05857 -24.7,-24.7 0,-13.64144 11.05857,-24.7 24.7,-24.7 13.64143,0 24.7,11.05856 24.7,24.7 z"
         cx="242"
         cy="326.10001"
         r="24.700001"
         id="circle4487" />
      <circle
         style="fill:#ffffff"
         sodipodi:ry="20.6"
         sodipodi:rx="20.6"
         sodipodi:cy="326.10001"
         sodipodi:cx="242"
         d="m 262.6,326.10001 c 0,11.37706 -9.22293,20.6 -20.6,20.6 -11.37707,0 -20.6,-9.22294 -20.6,-20.6 0,-11.37707 9.22293,-20.6 20.6,-20.6 11.37707,0 20.6,9.22293 20.6,20.6 z"
         cx="242"
         cy="326.10001"
         r="20.6"
         id="circle4489" />
      <circle
         style="fill:#c9caca"
         sodipodi:ry="17.799999"
         sodipodi:rx="17.799999"
         sodipodi:cy="326.10001"
         sodipodi:cx="242"
         d="m 259.8,326.10001 c 0,9.83066 -7.96933,17.8 -17.8,17.8 -9.83067,0 -17.8,-7.96934 -17.8,-17.8 0,-9.83067 7.96933,-17.8 17.8,-17.8 9.83067,0 17.8,7.96933 17.8,17.8 z"
         cx="242"
         cy="326.10001"
         r="17.799999"
         id="circle4491" />
      <circle
         style="fill:#ffffff"
         sodipodi:ry="13.8"
         sodipodi:rx="13.8"
         sodipodi:cy="326.10001"
         sodipodi:cx="242"
         d="m 255.8,326.10001 c 0,7.62153 -6.17847,13.8 -13.8,13.8 -7.62153,0 -13.8,-6.17847 -13.8,-13.8 0,-7.62153 6.17847,-13.8 13.8,-13.8 7.62153,0 13.8,6.17847 13.8,13.8 z"
         cx="242"
         cy="326.10001"
         r="13.8"
         id="circle4493" />
      <circle
         style="fill:#efefef"
         sodipodi:ry="9.8000002"
         sodipodi:rx="9.8000002"
         sodipodi:cy="326.10001"
         sodipodi:cx="242"
         d="m 251.8,326.10001 c 0,5.41239 -4.38761,9.8 -9.8,9.8 -5.41239,0 -9.8,-4.38761 -9.8,-9.8 0,-5.41239 4.38761,-9.8 9.8,-9.8 5.41239,0 9.8,4.38761 9.8,9.8 z"
         cx="242"
         cy="326.10001"
         r="9.8000002"
         id="circle4495" />
      <circle
         sodipodi:ry="1.3"
         sodipodi:rx="1.3"
         sodipodi:cy="326.29999"
         sodipodi:cx="241.8"
         d="m 243.1,326.29999 c 0,0.71797 -0.58203,1.3 -1.3,1.3 -0.71797,0 -1.3,-0.58203 -1.3,-1.3 0,-0.71797 0.58203,-1.3 1.3,-1.3 0.71797,0 1.3,0.58203 1.3,1.3 z"
         cx="241.8"
         cy="326.29999"
         r="1.3"
         id="circle4497" />
      <polygon
         style="fill:#e5555f"
         points="266.5,302.8 242,326.5 241.8,326.1 265.7,302 "
         id="polygon4499" />
      <polygon
         style="fill:#b5b5b6"
         points="262.2,305.5 265.7,302 266.5,297.8 262.5,302 "
         id="polygon4501" />
      <polygon
         style="fill:#b5b5b6"
         points="262.9,306.5 266.5,302.8 270.7,302 266.3,305.9 "
         id="polygon4503" />
    </g>
  </g>
</svg>
