<?xml version="1.0" encoding="utf-8"?>
<!-- Generator: Adobe Illustrator 18.0.0, SVG Export Plug-In . SVG Version: 6.00 Build 0)  -->
<!DOCTYPE svg PUBLIC "-//W3C//DTD SVG 1.1//EN" "http://www.w3.org/Graphics/SVG/1.1/DTD/svg11.dtd">
<svg version="1.1" id="Layer_1" xmlns="http://www.w3.org/2000/svg" xmlns:xlink="http://www.w3.org/1999/xlink" x="0px" y="0px"
	 viewBox="0 0 841.9 1190.6" enable-background="new 0 0 841.9 1190.6" xml:space="preserve">
<rect x="0" y="394.5" fill="#C9CACA" width="841.9" height="751.5"/>
<circle fill="#F39800" cx="555.9" cy="1048.5" r="38.1"/>
<circle fill="#F39800" cx="115.4" cy="963.7" r="38.1"/>
<circle fill="#F39800" cx="568" cy="799.5" r="38.1"/>
<circle fill="#F39800" cx="111" cy="706.1" r="38.1"/>
<circle fill="#F39800" cx="538.9" cy="543" r="38.1"/>
<circle fill="#F39800" cx="113.2" cy="461.2" r="38.1"/>
<circle fill="#F39800" cx="242.5" cy="318.9" r="38.1"/>
<path fill="#F39800" d="M631,341H273c-7.7,0-14-6.3-14-14v-16c0-7.7,6.3-14,14-14h358c7.7,0,14,6.3,14,14v16
	C645,334.7,638.7,341,631,341z"/>
<path fill="#EFEFEF" d="M796.3,66.9H84.9C78.9,66.9,74,62,74,56V35.2c0-6,4.9-10.9,10.9-10.9h711.4c6,0,10.9,4.9,10.9,10.9V56
	C807.1,62,802.3,66.9,796.3,66.9z"/>
<circle fill="#EFEFEF" cx="67.8" cy="43.6" r="34.5"/>
<path fill="#EFEFEF" d="M536.7,1022.5v4.3c0,1,0.8,1.8,1.8,1.8h15.1c1,0,1.8,0.8,1.8,1.8l0,0c0,1-0.8,1.8-1.8,1.8h-15.1
	c-1,0-1.8,0.8-1.8,1.8v1.5c0,1,0.8,1.8,1.8,1.8h9c1,0,1.8,0.8,1.8,1.8l0,0c0,1-0.8,1.8-1.8,1.8h-9c-1,0-1.8,0.8-1.8,1.8v22.7
	c0,1,0.8,1.8,1.8,1.8h37.3c1,0,1.8-0.8,1.8-1.8v-43.1c0-1-0.8-1.8-1.8-1.8h-37.3C537.5,1020.7,536.7,1021.5,536.7,1022.5z"/>
<path fill="#A7A693" d="M580.5,1086.4h-46.7c-3.5,0-6.3-2.5-6.3-5.7v-26.6c0-4.4,5.4-7.2,9.6-4.8l46.7,26.6
	C589.2,1079,586.8,1086.4,580.5,1086.4z"/>
<path fill="#DADBBF" d="M533.8,1086.4h46.7c3.5,0,6.3-2.5,6.3-5.7v-26.6c0-4.4-5.4-7.2-9.6-4.8l-46.7,26.6
	C525.2,1079,527.5,1086.4,533.8,1086.4z"/>
<path fill="#7A766D" d="M567.3,1074.1l1.4-3.4l3.1-1.7h1.7l1.9,0.6l11.2,8.9v2.6c0,0,0.1,1.7-1.7,3.5c-1.4,1.4-3.7,1.8-3.7,1.8H580
	l-11.6-8.5L567.3,1074.1z"/>
<path fill="#C9CACA" d="M586.3,567.7h-60.9c-3.3,0-6-2.7-6-6v-5.2c0-3.3,2.7-6,6-6h60.9c3.3,0,6,2.7,6,6v5.2
	C592.3,565,589.6,567.7,586.3,567.7z"/>
<g>
	<polygon fill="#F39800" points="67.8,45.5 84.3,45.5 84,49.5 81.6,53.9 73.7,59.6 67.8,60 	"/>
	<path fill="#3E3A39" d="M93.4,43.6c0,13.8-11.5,24.9-25.6,24.9S42.1,57.4,42.1,43.6s11.5-24.9,25.6-24.9S93.4,29.9,93.4,43.6z
		 M67.8,20.4C54.6,20.4,44,30.8,44,43.6s10.7,23.2,23.8,23.2s23.8-10.4,23.8-23.2S80.9,20.4,67.8,20.4z"/>
	<path fill="#3E3A39" d="M84.6,44.6c-2.7,0-15.9,0-15.9,0V34c0,0-0.1-0.8-0.9-0.8c-0.8,0-0.9,0.8-0.9,0.8v25.5
		c-8.5-0.5-15.5-7.4-15.5-15.9s7.1-16,16.6-16c4.4,0,7.2,1.5,9.4,3c1.7,1.1,3.4,2.9,4.2,4.2c0.1,0.1,0.6,0.6,1.2,0.2
		c0.7-0.4,0.3-1.1,0.3-1.2c-3.3-4.8-8.9-8-15.2-8c-10,0-18.2,7.7-18.2,17.8c0,10,8.1,17.8,18.2,17.8c7.3,0,13.7-4.2,16.7-10.5
		c0.7-1.5,1-2.9,1.4-4.6C86.1,45.4,85.7,44.6,84.6,44.6z M83.7,47.7c-1.4,4.7-4.1,7.3-6.1,8.7c-2.2,1.5-5,3-9,3.2V46.3H84
		C84,46.3,83.8,47.3,83.7,47.7z"/>
</g>
<text transform="matrix(1 0 0 1 107.0508 50.3079)" fill="#3E3A39" font-family="'ITCAvantGardeStd-Bk'" font-size="16.9085">Gitboard</text>
<path fill="#C9CACA" d="M746.5,244.8H56.9c-9.9,0-17.9-8-17.9-17.9V108.3c0-9.9,8-17.9,17.9-17.9H785c9.9,0,17.9,8,17.9,17.9V190
	c0,4.9-2,9.6-5.5,13L759,239.8C755.6,243,751.2,244.8,746.5,244.8z"/>
<text transform="matrix(1 0 0 1 766.4424 47.3826)" font-family="'MicrosoftTaiLe'" font-size="8.3885">login </text>
<g>
	<g>
		<path fill="#040000" d="M755.3,43.4c0.6-0.6,0.9-1.5,0.9-2.4c0-1.9-1.6-3.5-3.5-3.5s-3.5,1.6-3.5,3.5c0,0.9,0.4,1.8,0.9,2.4
			c-1.5,1.3-2.6,3.6-2.8,6.5c0,0.1,0,0.2,0.1,0.3s0.2,0.1,0.3,0.1h9.9c0.1,0,0.2,0,0.3-0.1c0.1-0.1,0.1-0.2,0.1-0.3
			C757.9,47.1,756.8,44.7,755.3,43.4 M752.7,38.3c1.5,0,2.7,1.2,2.7,2.7c0,1.5-1.2,2.7-2.7,2.7S750,42.5,750,41
			C750,39.5,751.2,38.3,752.7,38.3 M748.2,49.5c0.3-2.5,1.2-4.5,2.5-5.6c0.6,0.4,1.3,0.6,2,0.6s1.4-0.2,2-0.6c1.3,1,2.3,3.1,2.5,5.6
			H748.2z"/>
	</g>
</g>
<polygon fill="#F39800" points="753.8,244.8 803,197.7 755,198.5 "/>
<text transform="matrix(1 0 0 1 305.1396 152.2034)" fill="#F7F8F8" font-family="'MyriadPro-Regular'" font-size="35.9985">xxxxxxxxxxxxxxx</text>
<text transform="matrix(1 0 0 1 279.334 191.2908)" fill="#F7F8F8" font-family="'MyriadPro-Regular'" font-size="20.9991">xxxxxxxxxxxxxxxxxxxxxxxxxxxxxxx</text>
<text transform="matrix(1 0 0 1 279.334 212.0969)" fill="#F7F8F8" font-family="'MyriadPro-Regular'" font-size="20.9991">xxxxxxxxxxxxxxxxxxxxxxxxxxxxxxx</text>
<text transform="matrix(1 0 0 1 324.1172 325.9377)" fill="#FFFFFF" font-family="'AvenirLTStd-Book'" font-size="17.9992">Feature</text>
<g>
	<text transform="matrix(1 0 0 1 441.876 325.9373)" fill="#FFFFFF" font-family="'AvenirLTStd-Book'" font-size="17.9992">Qeations &amp; Answers</text>
</g>
<text transform="matrix(1 0 0 1 189.5464 440.7795)" fill="#FFFFFF" font-family="'MyriadPro-Regular'" font-size="15.9993">xxxxxxxxxxxxxxxxxx</text>
<text transform="matrix(1 0 0 1 189.5464 459.9788)" fill="#FFFFFF" font-family="'MyriadPro-Regular'" font-size="15.9993">xxxxxxxxxxxxxxxxxx</text>
<text transform="matrix(1 0 0 1 189.5464 479.178)" fill="#FFFFFF" font-family="'MyriadPro-Regular'" font-size="15.9993">xxxxxxxxxxxxxxxxx</text>
<text transform="matrix(1 0 0 1 189.5464 498.3772)" fill="#FFFFFF" font-family="'MyriadPro-Regular'" font-size="15.9993">xxxxxxxxxxxxxxxxx</text>
<text transform="matrix(1 0 0 1 628.5283 514.0842)" fill="#FFFFFF" font-family="'MyriadPro-Regular'" font-size="15.9993">xxxxxxxxxxxxxxxxxx</text>
<text transform="matrix(1 0 0 1 628.5283 533.2834)" fill="#FFFFFF" font-family="'MyriadPro-Regular'" font-size="15.9993">xxxxxxxxxxxxxxxxxx</text>
<text transform="matrix(1 0 0 1 628.5283 552.4827)" fill="#FFFFFF" font-family="'MyriadPro-Regular'" font-size="15.9993">xxxxxxxxxxxxxxxxx</text>
<text transform="matrix(1 0 0 1 628.5283 571.6819)" fill="#FFFFFF" font-family="'MyriadPro-Regular'" font-size="15.9993">xxxxxxxxxxxxxxxxx</text>
<text transform="matrix(1 0 0 1 177.2827 684.5911)" fill="#FFFFFF" font-family="'MyriadPro-Regular'" font-size="15.9993">xxxxxxxxxxxxxxxxxx</text>
<text transform="matrix(1 0 0 1 177.2827 703.7903)" fill="#FFFFFF" font-family="'MyriadPro-Regular'" font-size="15.9993">xxxxxxxxxxxxxxxxxx</text>
<text transform="matrix(1 0 0 1 177.2827 722.9895)" fill="#FFFFFF" font-family="'MyriadPro-Regular'" font-size="15.9993">xxxxxxxxxxxxxxxxx</text>
<text transform="matrix(1 0 0 1 177.2827 742.1887)" fill="#FFFFFF" font-family="'MyriadPro-Regular'" font-size="15.9993">xxxxxxxxxxxxxxxxx</text>
<text transform="matrix(1 0 0 1 631.0449 772.261)" fill="#FFFFFF" font-family="'MyriadPro-Regular'" font-size="15.9993">xxxxxxxxxxxxxxxxxx</text>
<text transform="matrix(1 0 0 1 631.0449 791.4602)" fill="#FFFFFF" font-family="'MyriadPro-Regular'" font-size="15.9993">xxxxxxxxxxxxxxxxxx</text>
<text transform="matrix(1 0 0 1 631.0449 810.6594)" fill="#FFFFFF" font-family="'MyriadPro-Regular'" font-size="15.9993">xxxxxxxxxxxxxxxxx</text>
<text transform="matrix(1 0 0 1 631.0449 829.8586)" fill="#FFFFFF" font-family="'MyriadPro-Regular'" font-size="15.9993">xxxxxxxxxxxxxxxxx</text>
<text transform="matrix(1 4.682468e-03 -4.682468e-03 1 178.2471 942.3452)" fill="#FFFFFF" font-family="'MyriadPro-Regular'" font-size="15.9995">xxxxxxxxxxxxxxxxxx</text>
<text transform="matrix(1 4.682468e-03 -4.682468e-03 1 178.1572 961.5442)" fill="#FFFFFF" font-family="'MyriadPro-Regular'" font-size="15.9995">xxxxxxxxxxxxxxxxxx</text>
<text transform="matrix(1 4.682468e-03 -4.682468e-03 1 178.0673 980.7432)" fill="#FFFFFF" font-family="'MyriadPro-Regular'" font-size="15.9995">xxxxxxxxxxxxxxxxx</text>
<text transform="matrix(1 4.682468e-03 -4.682468e-03 1 177.9774 999.9422)" fill="#FFFFFF" font-family="'MyriadPro-Regular'" font-size="15.9995">xxxxxxxxxxxxxxxxx</text>
<text transform="matrix(1 0 0 1 625.0449 1038.6252)" fill="#FFFFFF" font-family="'MyriadPro-Regular'" font-size="15.9993">xxxxxxxxxxxxxxxxxx</text>
<text transform="matrix(1 0 0 1 625.0449 1057.8245)" fill="#FFFFFF" font-family="'MyriadPro-Regular'" font-size="15.9993">xxxxxxxxxxxxxxxxxx</text>
<text transform="matrix(1 0 0 1 625.0449 1077.0237)" fill="#FFFFFF" font-family="'MyriadPro-Regular'" font-size="15.9993">xxxxxxxxxxxxxxxxx</text>
<text transform="matrix(1 0 0 1 625.0449 1096.2229)" fill="#FFFFFF" font-family="'MyriadPro-Regular'" font-size="15.9993">xxxxxxxxxxxxxxxxx</text>
<line fill="none" stroke="#727171" stroke-miterlimit="10" x1="362.7" y1="1158" x2="353.7" y2="1174"/>
<text transform="matrix(1 0 0 1 277.001 1172.9504)" fill="#595757" font-family="'MicrosoftTaiLe'" font-size="17.9992">xxxxxxxx    xxxxxxxxxxx    xxxxxxxxxx     </text>
<line fill="none" stroke="#727171" stroke-miterlimit="10" x1="471.6" y1="1158" x2="462.6" y2="1174"/>
<g>
	<g>
		<circle id="SVGID_1_" fill="#F0DCC8" cx="113" cy="461.2" r="34.4"/>
	</g>
	<g>
		<defs>
			<circle id="SVGID_2_" cx="113" cy="461.2" r="34.4"/>
		</defs>
		<clipPath id="SVGID_4_">
			<use xlink:href="#SVGID_2_"  overflow="visible"/>
		</clipPath>
		<path clip-path="url(#SVGID_4_)" fill="#EFEFEF" d="M156.9,482H99.3c-3.4,0-6.2-2.8-6.2-6.2v-28.1c0-3.4,2.8-6.2,6.2-6.2h57.6
			c3.4,0,6.2,2.8,6.2,6.2v28.1C163.1,479.2,160.3,482,156.9,482z"/>
	</g>
</g>
<polygon fill="#595757" points="112.2,441.5 93.1,461.7 93.1,467.6 117.4,441.5 "/>
<polygon fill="#F8B62D" points="104.6,444.8 106.9,449.4 112.1,450.2 108.4,453.8 109.2,458.9 104.6,456.5 100,458.9 100.9,453.8 
	97.2,450.2 102.3,449.4 "/>
<circle fill="#B098B7" cx="133" cy="455.8" r="12.1"/>
<circle fill="#FFFFFF" cx="133" cy="455.8" r="9.4"/>
<rect x="100.4" y="470.8" fill="#898989" width="25.6" height="0.9"/>
<rect x="100.4" y="473.1" fill="#898989" width="38.5" height="0.9"/>
<rect x="100.4" y="475.7" fill="#898989" width="31.8" height="0.9"/>
<path fill="#947326" d="M98.7,482l30.2,9.7c0,0,7.3-3.7,11.5-9.7H98.7z"/>
<path d="M585.3,561.4h-58.7c-3.9,0-7.1-3.2-7.1-7.1v-33.2c0-3.9,3.2-7.1,7.1-7.1h58.7c3.9,0,7.1,3.2,7.1,7.1v33.2
	C592.4,558.3,589.2,561.4,585.3,561.4z"/>
<rect x="522.7" y="517.6" fill="#FFFFFF" width="66.3" height="40.4"/>
<circle cx="556.7" cy="564.6" r="1.6"/>
<path fill="#DCDDDD" d="M582.7,534.1h-53.8c-2,0-3.7-1.6-3.7-3.7v-4.3c0-2,1.6-3.7,3.7-3.7h53.8c2,0,3.7,1.6,3.7,3.7v4.3
	C586.4,532.4,584.7,534.1,582.7,534.1z"/>
<circle fill="#DCDDDD" cx="527.1" cy="520.3" r="1.1"/>
<circle fill="#DCDDDD" cx="531" cy="520.3" r="1.1"/>
<circle fill="#DCDDDD" cx="534.8" cy="520.3" r="1.1"/>
<rect x="536" y="524.6" fill="#FFFFFF" width="48.4" height="7.1"/>
<g>
	<path fill="#F39800" d="M532.8,528.2c-0.1,0-0.2,0.1-0.2,0.2c0,1.2-1,2.2-2.2,2.2s-2.2-1-2.2-2.2c0-1.1,0.9-2.1,2-2.2l-0.2,0.2
		c-0.1,0.1-0.1,0.2-0.1,0.3s0.1,0.1,0.2,0.1h0.1l0.9-0.6l0,0l0,0l0,0l0,0l0,0l0,0l0,0l0,0l0,0l0,0l0,0l0,0l0,0l0,0l0,0l0,0l0,0l0,0
		l0,0l0,0l0,0l0,0l-0.9-0.6c-0.1-0.1-0.3,0-0.3,0.1c-0.1,0.1,0,0.3,0.1,0.3l0.2,0.2c-1.4,0.1-2.5,1.2-2.5,2.6c0,1.5,1.2,2.7,2.7,2.7
		s2.7-1.2,2.7-2.7C533,528.3,532.9,528.2,532.8,528.2z"/>
</g>
<rect x="574.2" y="539.3" fill="#EFEFEF" width="11.6" height="3.7"/>
<rect x="526" y="539.3" fill="#EFEFEF" width="11.6" height="3.7"/>
<rect x="542" y="539.3" fill="#EFEFEF" width="11.6" height="3.7"/>
<rect x="558.1" y="539.3" fill="#EFEFEF" width="11.6" height="3.7"/>
<rect x="574.3" y="545.9" fill="#EFEFEF" width="11.6" height="3.7"/>
<rect x="526.1" y="545.9" fill="#EFEFEF" width="11.6" height="3.7"/>
<rect x="542.1" y="545.9" fill="#EFEFEF" width="11.6" height="3.7"/>
<rect x="558.2" y="545.9" fill="#EFEFEF" width="11.6" height="3.7"/>
<path fill="#DCDDDD" d="M548.8,568.4c0,0,0.2,5.6,0,7.7c-0.3,2.7-3.6,3.5-3.6,3.5H568c0,0-3.2-1.1-3.2-4.2c0-2.6,0.1-7,0.1-7H548.8z
	"/>
<circle fill="#905E65" cx="111" cy="706.1" r="34.4"/>
<circle fill="#FFFFFF" cx="111" cy="706.1" r="28.7"/>
<circle fill="#905E65" cx="111" cy="706.1" r="23.3"/>
<path fill="#534349" d="M120.1,733.4l3.9,4.7c0,0,7.5-2.6,14-10.4c5.2-6.2,6.7-14.4,6.7-14.4l-5.4-2.7L120.1,733.4z"/>
<path fill="#DCDDDD" d="M116.2,728.9l3.8,4.5c0,0,8.8-2.2,14.2-10.1c4.2-6.2,5-12.7,5-12.7l-5-3L116.2,728.9z"/>
<path fill="#534349" d="M111.3,723.3l4.9,5.6c0,0,9.4-1.8,14.3-10c3.9-6.5,3.8-11.4,3.8-11.4l-9.1-5.7L111.3,723.3z"/>
<circle fill="#7989B3" cx="111" cy="706.1" r="17.1"/>
<polygon fill="#FFFFFF" points="111.7,692 115.8,700.5 125.2,701.8 118.4,708.4 120,717.7 111.7,713.3 103.3,717.7 104.9,708.4 
	98.1,701.8 107.5,700.5 "/>
<g>
	<circle fill="#D2E4F5" cx="115.7" cy="963.7" r="34.4"/>
	<path fill="#EFEFEF" d="M136.7,963.2c0,4.3,0,7.1-0.1,11.3l-42.1-0.2c0-3,0-6.2,0.1-11.3c0-10.3,9.5-18.7,21.1-18.6
		S136.7,952.9,136.7,963.2z"/>
	<path fill="#898989" d="M133.4,965.7c0,3.3,0,5.5,0,8.8l-35.6-0.2c0-2.3,0-4.8,0-8.8c0-8,8-14.5,17.9-14.5
		C125.5,951.1,133.4,957.7,133.4,965.7z"/>
	<path fill="#595757" d="M99.5,963.9c0,0,0.3-3.9,4.7-7.5c4.3-3.5,8.1-3.4,8.1-3.4c0.9,0.9,4.6,5.4-1.7,10.7
		C109.2,964.8,103.3,968.3,99.5,963.9z"/>
	<circle fill="#FAEE00" cx="126.6" cy="936.5" r="0.8"/>
	<circle fill="#FAEE00" cx="100.2" cy="939.7" r="1.5"/>
	<circle fill="#FAEE00" cx="139.4" cy="950.2" r="1"/>
	<circle fill="#FAEE00" cx="86.1" cy="951" r="0.8"/>
	<circle fill="#FAEE00" cx="144" cy="963.5" r="2.1"/>
	<path fill="#B5B5B6" d="M137.5,981.3L92,981.1c-1,0-1.9-0.9-1.9-1.9v-3c0-1,0.9-1.9,1.9-1.9l45.5,0.2c1,0,1.9,0.9,1.9,1.9v3
		C139.4,980.5,138.6,981.3,137.5,981.3z"/>
	<polygon fill="#EFEFEF" points="142.7,990.3 88.3,990 88.4,984.7 88.4,979.5 142.8,979.7 	"/>
	
		<rect x="114.9" y="939.7" transform="matrix(-1 -4.682437e-03 4.682437e-03 -1 227.0013 1886.2727)" fill="#EFEFEF" width="1.6" height="6.4"/>
	<circle fill="#EFEFEF" cx="115.6" cy="938.3" r="2.6"/>
	<circle fill="#FAEE00" cx="90.8" cy="960.5" r="1"/>
	<path fill="#879CBB" d="M137.6,990.3c-1.2,1-3.5,2.5-4.8,3.3c-5.2,3.1-11.4,4.6-17.3,4.5c-7,0-13-1.6-18.4-5.2
		c-1.3-0.9-2.6-1.8-3.8-2.9L137.6,990.3z"/>
	<path fill="#F39800" d="M96,977.7h-0.8c-0.4,0-0.7-0.3-0.7-0.7l0,0c0-0.4,0.3-0.7,0.7-0.7H96c0.4,0,0.7,0.3,0.7,0.7l0,0
		C96.8,977.4,96.4,977.7,96,977.7z"/>
	<path d="M99.8,977.7H99c-0.4,0-0.7-0.3-0.7-0.7l0,0c0-0.4,0.3-0.7,0.7-0.7h0.8c0.4,0,0.7,0.3,0.7,0.7l0,0
		C100.5,977.4,100.2,977.7,99.8,977.7z"/>
	<polygon fill="#898989" points="93.4,990.1 88.3,990 88.4,979.6 	"/>
	<polygon fill="#898989" points="137.7,990.2 142.7,990.3 142.8,979.8 	"/>
</g>
<g>
	<g>
		<circle id="SVGID_3_" fill="#C8E6E1" cx="568.4" cy="799.9" r="34.4"/>
	</g>
	<g>
		<defs>
			<circle id="SVGID_5_" cx="568.4" cy="799.9" r="34.4"/>
		</defs>
		<clipPath id="SVGID_6_">
			<use xlink:href="#SVGID_5_"  overflow="visible"/>
		</clipPath>
		<path clip-path="url(#SVGID_6_)" fill="#EFEFEF" d="M557.1,824.2h-29.5c-2.9,0-5.2-2.3-5.2-5.2v-56.6c0-2.9,2.3-5.2,5.2-5.2h41.1
			c2.9,0,5.2,2.3,5.2,5.2v45.1L557.1,824.2z"/>
	</g>
	<g>
		<defs>
			<circle id="SVGID_7_" cx="568.4" cy="799.9" r="34.4"/>
		</defs>
		<clipPath id="SVGID_8_">
			<use xlink:href="#SVGID_7_"  overflow="visible"/>
		</clipPath>
		<polygon clip-path="url(#SVGID_8_)" fill="#C9CACA" points="557.1,824.2 557.1,807.5 574,807.5 		"/>
	</g>
</g>
<rect x="551.5" y="779" fill="#898989" width="19.1" height="0.9"/>
<rect x="542.5" y="784.8" fill="#898989" width="20.3" height="0.9"/>
<rect x="542.5" y="790.2" fill="#898989" width="26.9" height="0.9"/>
<rect x="542.5" y="795.6" fill="#898989" width="17.4" height="0.9"/>
<rect x="538.9" y="800.1" fill="#898989" width="29.5" height="0.9"/>
<path fill="#FFFFFF" d="M588.8,811L588.8,811c-4.9,0-8.9-4-8.9-8.9v-7.6c0-4.9,4-8.9,8.9-8.9l0,0c4.9,0,8.9,4,8.9,8.9v7.6
	C597.7,807,593.7,811,588.8,811z"/>
<circle fill="#C9CACA" cx="588.8" cy="790.4" r="0.8"/>
<path fill="#DCDDDD" d="M579.9,793.8v6.8c0,0,1.8-0.8,1.8-3.4C581.8,794.5,579.9,793.8,579.9,793.8z"/>
<path fill="#DCDDDD" d="M597.7,793.8v6.8c0,0-1.8-0.8-1.8-3.4C595.9,794.5,597.7,793.8,597.7,793.8z"/>
<text transform="matrix(1 0 0 1 566.0684 1077.5198)" fill="#FFFFFF" font-family="'AkzidenzGroteskBE-Regular'" font-size="12.7058">@</text>
<rect x="541.9" y="1046.7" fill="#B5B5B6" width="32" height="1.3"/>
<rect x="553.2" y="1042.6" fill="#B5B5B6" width="20.7" height="1.3"/>
<rect x="553.2" y="1038.5" fill="#B5B5B6" width="20.7" height="1.3"/>
<rect x="561" y="1034.3" fill="#B5B5B6" width="12.8" height="1.3"/>
<rect x="561" y="1030" fill="#B5B5B6" width="12.8" height="1.3"/>
<g>
	<circle fill="#DCDDDD" cx="242" cy="320.1" r="24.7"/>
	<circle fill="#FFFFFF" cx="242" cy="320.1" r="20.6"/>
	<circle fill="#C9CACA" cx="242" cy="320.1" r="17.8"/>
	<circle fill="#FFFFFF" cx="242" cy="320.1" r="13.8"/>
	<circle fill="#EFEFEF" cx="242" cy="320.1" r="9.8"/>
	<circle cx="241.8" cy="320.3" r="1.3"/>
	<polygon fill="#E5555F" points="266.5,296.8 242,320.5 241.8,320.1 265.7,296 	"/>
	<polygon fill="#DCDDDD" points="262.2,299.5 265.7,296 266.5,291.8 262.5,296 	"/>
	<polygon fill="#DCDDDD" points="262.9,300.5 266.5,296.8 270.7,296 266.3,299.9 	"/>
</g>
<g>
	<g>
		
			<line fill="none" stroke="#FFFFFF" stroke-width="0.75" stroke-linecap="round" stroke-linejoin="round" x1="365" y1="460.6" x2="367" y2="460.6"/>
		
			<line fill="none" stroke="#FFFFFF" stroke-width="0.75" stroke-linecap="round" stroke-linejoin="round" stroke-dasharray="3.9068,3.9068,3.9068,3.9068" x1="370.9" y1="460.6" x2="384.6" y2="460.6"/>
		
			<path fill="none" stroke="#FFFFFF" stroke-width="0.75" stroke-linecap="round" stroke-linejoin="round" stroke-dasharray="3.9068,3.9068,3.9068,3.9068,3.9068,3.9068" d="
			M386.5,460.6h216.3c0,0,50.8-3.7,54.9,20.2"/>
		<path fill="none" stroke="#FFFFFF" stroke-width="0.75" stroke-linecap="round" stroke-linejoin="round" d="M658,482.7
			c0,0.6,0.1,1.3,0,2"/>
	</g>
</g>
<g>
	<g>
		<path fill="none" stroke="#FFFFFF" stroke-width="0.75" stroke-linecap="round" stroke-linejoin="round" d="M658,590.1
			c0,0.7,0,1.3,0,2"/>
		
			<path fill="none" stroke="#FFFFFF" stroke-width="0.75" stroke-linecap="round" stroke-linejoin="round" stroke-dasharray="3.9461,3.9461,3.9461,3.9461" d="
			M657.5,596c-1.1,4.8-3.7,8.6-7.2,11.5"/>
		
			<path fill="none" stroke="#FFFFFF" stroke-width="0.75" stroke-linecap="round" stroke-linejoin="round" stroke-dasharray="3.9461,3.9461,3.9461,3.9461,3.9461,3.9461" d="
			M648.7,608.7c-16.1,11.7-47.5,9.1-47.5,9.1H356.5L158.9,618c0,0-34.4-0.6-37.9,26.9"/>
		<path fill="none" stroke="#FFFFFF" stroke-width="0.75" stroke-linecap="round" stroke-linejoin="round" d="M120.8,647
			c0,0.7-0.1,1.3-0.1,2"/>
	</g>
</g>
<g>
	<g>
		
			<line fill="none" stroke="#FFFFFF" stroke-width="0.75" stroke-linecap="round" stroke-linejoin="round" x1="365" y1="711.2" x2="367" y2="711.2"/>
		
			<line fill="none" stroke="#FFFFFF" stroke-width="0.75" stroke-linecap="round" stroke-linejoin="round" stroke-dasharray="3.9068,3.9068,3.9068,3.9068" x1="370.9" y1="711.2" x2="384.6" y2="711.2"/>
		
			<path fill="none" stroke="#FFFFFF" stroke-width="0.75" stroke-linecap="round" stroke-linejoin="round" stroke-dasharray="3.9068,3.9068,3.9068,3.9068,3.9068,3.9068" d="
			M386.5,711.2h216.3c0,0,50.8-3.7,54.9,20.2"/>
		<path fill="none" stroke="#FFFFFF" stroke-width="0.75" stroke-linecap="round" stroke-linejoin="round" d="M658,733.4
			c0,0.6,0.1,1.3,0,2"/>
	</g>
</g>
<g>
	<g>
		<path fill="none" stroke="#FFFFFF" stroke-width="0.75" stroke-linecap="round" stroke-linejoin="round" d="M658,846.1
			c0,0.7,0,1.3,0,2"/>
		
			<path fill="none" stroke="#FFFFFF" stroke-width="0.75" stroke-linecap="round" stroke-linejoin="round" stroke-dasharray="3.9461,3.9461,3.9461,3.9461" d="
			M657.5,852c-1.1,4.8-3.7,8.6-7.2,11.5"/>
		
			<path fill="none" stroke="#FFFFFF" stroke-width="0.75" stroke-linecap="round" stroke-linejoin="round" stroke-dasharray="3.9461,3.9461,3.9461,3.9461,3.9461,3.9461" d="
			M648.7,864.7c-16.1,11.7-47.5,9.1-47.5,9.1H356.5L158.9,874c0,0-34.4-0.6-37.9,26.9"/>
		<path fill="none" stroke="#FFFFFF" stroke-width="0.75" stroke-linecap="round" stroke-linejoin="round" d="M120.8,902.9
			c0,0.7-0.1,1.3-0.1,2"/>
	</g>
</g>
<g>
	<g>
		
			<line fill="none" stroke="#FFFFFF" stroke-width="0.75" stroke-linecap="round" stroke-linejoin="round" x1="360" y1="980.5" x2="362" y2="980.5"/>
		
			<line fill="none" stroke="#FFFFFF" stroke-width="0.75" stroke-linecap="round" stroke-linejoin="round" stroke-dasharray="3.9068,3.9068,3.9068,3.9068" x1="365.9" y1="980.5" x2="379.6" y2="980.5"/>
		
			<path fill="none" stroke="#FFFFFF" stroke-width="0.75" stroke-linecap="round" stroke-linejoin="round" stroke-dasharray="3.9068,3.9068,3.9068,3.9068,3.9068,3.9068" d="
			M381.5,980.5h216.3c0,0,50.8-3.7,54.9,20.2"/>
		<path fill="none" stroke="#FFFFFF" stroke-width="0.75" stroke-linecap="round" stroke-linejoin="round" d="M653,1002.7
			c0,0.6,0.1,1.3,0,2"/>
	</g>
</g>
<line fill="none" stroke="#FFFFFF" stroke-miterlimit="10" x1="423" y1="304.7" x2="407.9" y2="333.9"/>
</svg>
