<?xml version="1.0" encoding="UTF-8" standalone="no"?>
<!-- Created with Inkscape (http://www.inkscape.org/) -->

<svg
   xmlns:dc="http://purl.org/dc/elements/1.1/"
   xmlns:cc="http://creativecommons.org/ns#"
   xmlns:rdf="http://www.w3.org/1999/02/22-rdf-syntax-ns#"
   xmlns:svg="http://www.w3.org/2000/svg"
   xmlns="http://www.w3.org/2000/svg"
   xmlns:sodipodi="http://sodipodi.sourceforge.net/DTD/sodipodi-0.dtd"
   xmlns:inkscape="http://www.inkscape.org/namespaces/inkscape"
   width="76.199997"
   height="76.199997"
   id="svg5083"
   version="1.1"
   inkscape:version="0.48.4 r9939"
   sodipodi:docname="New document 20">
  <defs
     id="defs5085" />
  <sodipodi:namedview
     id="base"
     pagecolor="#ffffff"
     bordercolor="#666666"
     borderopacity="1.0"
     inkscape:pageopacity="0.0"
     inkscape:pageshadow="2"
     inkscape:zoom="1.4"
     inkscape:cx="29.93981"
     inkscape:cy="99.804941"
     inkscape:document-units="px"
     inkscape:current-layer="layer1"
     showgrid="false"
     fit-margin-top="0"
     fit-margin-left="0"
     fit-margin-right="0"
     fit-margin-bottom="0"
     inkscape:window-width="472"
     inkscape:window-height="383"
     inkscape:window-x="364"
     inkscape:window-y="205"
     inkscape:window-maximized="0" />
  <metadata
     id="metadata5088">
    <rdf:RDF>
      <cc:Work
         rdf:about="">
        <dc:format>image/svg+xml</dc:format>
        <dc:type
           rdf:resource="http://purl.org/dc/dcmitype/StillImage" />
        <dc:title></dc:title>
      </cc:Work>
    </rdf:RDF>
  </metadata>
  <g
     inkscape:label="Layer 1"
     inkscape:groupmode="layer"
     id="layer1"
     transform="translate(-336.90001,-494.26218)">
    <circle
       style="fill:#efefef"
       sodipodi:ry="38.099998"
       sodipodi:rx="38.099998"
       sodipodi:cy="1048.5"
       sodipodi:cx="555.90002"
       transform="translate(-180.90002,-516.13782)"
       cx="555.90002"
       cy="1048.5"
       r="38.099998"
       id="circle4189"
       d="m 594.00002,1048.5 c 0,21.042 -17.05795,38.1 -38.1,38.1 -21.04204,0 -38.09999,-17.058 -38.09999,-38.1 0,-21.042 17.05795,-38.1 38.09999,-38.1 21.04205,0 38.1,17.058 38.1,38.1 z" />
    <path
       style="fill:#ffffff"
       inkscape:connector-curvature="0"
       d="m 355.79998,506.36218 v 4.3 c 0,1 0.8,1.8 1.8,1.8 h 15.1 c 1,0 1.8,0.8 1.8,1.8 l 0,0 c 0,1 -0.8,1.8 -1.8,1.8 h -15.1 c -1,0 -1.8,0.8 -1.8,1.8 v 1.5 c 0,1 0.8,1.8 1.8,1.8 h 9 c 1,0 1.8,0.8 1.8,1.8 l 0,0 c 0,1 -0.8,1.8 -1.8,1.8 h -9 c -1,0 -1.8,0.8 -1.8,1.8 v 22.7 c 0,1 0.8,1.8 1.8,1.8 h 37.3 c 1,0 1.8,-0.8 1.8,-1.8 v -43.1 c 0,-1 -0.8,-1.8 -1.8,-1.8 h -37.3 c -1,0.2 -1.8,1 -1.8,2 z"
       id="path4209" />
    <path
       style="fill:#a7a693"
       inkscape:connector-curvature="0"
       d="m 399.59998,570.26218 h -46.7 c -3.5,0 -6.3,-2.5 -6.3,-5.7 v -26.6 c 0,-4.4 5.4,-7.2 9.6,-4.8 l 46.7,26.6 c 5.4,3.1 3,10.5 -3.3,10.5 z"
       id="path4211" />
    <path
       style="fill:#dadbbf"
       inkscape:connector-curvature="0"
       d="m 352.89998,570.26218 h 46.7 c 3.5,0 6.3,-2.5 6.3,-5.7 v -26.6 c 0,-4.4 -5.4,-7.2 -9.6,-4.8 l -46.7,26.6 c -5.3,3.1 -3,10.5 3.3,10.5 z"
       id="path4213" />
    <path
       style="fill:#7a766d"
       inkscape:connector-curvature="0"
       d="m 386.39998,557.96218 1.4,-3.4 3.1,-1.7 h 1.7 l 1.9,0.6 11.2,8.9 v 2.6 c 0,0 0.1,1.7 -1.7,3.5 -1.4,1.4 -3.7,1.8 -3.7,1.8 h -1.2 l -11.6,-8.5 -1.1,-3.8 z"
       id="path4215" />
    <text
       y="561.42731"
       x="385.17926"
       style="font-size:12.70629978px;fill:#ffffff;font-family:AkzidenzGroteskBE-Regular"
       font-size="12.7063"
       id="text4473">@</text>
    <rect
       style="fill:#b5b5b6"
       x="361"
       y="530.56213"
       width="32"
       height="1.3"
       id="rect4475" />
    <rect
       style="fill:#b5b5b6"
       x="372.29999"
       y="526.46216"
       width="20.700001"
       height="1.3"
       id="rect4477" />
    <rect
       style="fill:#b5b5b6"
       x="372.29999"
       y="522.36218"
       width="20.700001"
       height="1.3"
       id="rect4479" />
    <rect
       style="fill:#b5b5b6"
       x="380.09998"
       y="518.16223"
       width="12.8"
       height="1.3"
       id="rect4481" />
    <rect
       style="fill:#b5b5b6"
       x="380.09998"
       y="513.86218"
       width="12.8"
       height="1.3"
       id="rect4483" />
  </g>
</svg>
