<?xml version="1.0" encoding="UTF-8" standalone="no"?>
<!-- Created with Inkscape (http://www.inkscape.org/) -->

<svg
   xmlns:dc="http://purl.org/dc/elements/1.1/"
   xmlns:cc="http://creativecommons.org/ns#"
   xmlns:rdf="http://www.w3.org/1999/02/22-rdf-syntax-ns#"
   xmlns:svg="http://www.w3.org/2000/svg"
   xmlns="http://www.w3.org/2000/svg"
   xmlns:sodipodi="http://sodipodi.sourceforge.net/DTD/sodipodi-0.dtd"
   xmlns:inkscape="http://www.inkscape.org/namespaces/inkscape"
   width="51.299999"
   height="49.799999"
   id="svg5223"
   version="1.1"
   inkscape:version="0.48.4 r9939"
   sodipodi:docname="New document 26">
  <defs
     id="defs5225" />
  <sodipodi:namedview
     id="base"
     pagecolor="#ffffff"
     bordercolor="#666666"
     borderopacity="1.0"
     inkscape:pageopacity="0.0"
     inkscape:pageshadow="2"
     inkscape:zoom="1.4"
     inkscape:cx="43.987587"
     inkscape:cy="99.127184"
     inkscape:document-units="px"
     inkscape:current-layer="layer1"
     showgrid="false"
     fit-margin-top="0"
     fit-margin-left="0"
     fit-margin-right="0"
     fit-margin-bottom="0"
     inkscape:window-width="472"
     inkscape:window-height="383"
     inkscape:window-x="695"
     inkscape:window-y="380"
     inkscape:window-maximized="0" />
  <metadata
     id="metadata5228">
    <rdf:RDF>
      <cc:Work
         rdf:about="">
        <dc:format>image/svg+xml</dc:format>
        <dc:type
           rdf:resource="http://purl.org/dc/dcmitype/StillImage" />
        <dc:title></dc:title>
      </cc:Work>
    </rdf:RDF>
  </metadata>
  <g
     inkscape:label="Layer 1"
     inkscape:groupmode="layer"
     id="layer1"
     transform="translate(-349.35,-507.46218)">
    <g
       transform="translate(307.25,488.76218)"
       id="g4219">
      <polygon
         style="fill:#f39800"
         points="84,49.5 81.6,53.9 73.7,59.6 67.8,60 67.8,45.5 84.3,45.5 "
         id="polygon4221" />
      <path
         style="fill:#3e3a39"
         inkscape:connector-curvature="0"
         d="m 93.4,43.6 c 0,13.8 -11.5,24.9 -25.6,24.9 -14.1,0 -25.7,-11.1 -25.7,-24.9 0,-13.8 11.5,-24.9 25.6,-24.9 14.1,0 25.7,11.2 25.7,24.9 z M 67.8,20.4 C 54.6,20.4 44,30.8 44,43.6 44,56.4 54.7,66.8 67.8,66.8 80.9,66.8 91.6,56.4 91.6,43.6 91.6,30.8 80.9,20.4 67.8,20.4 z"
         id="path4223" />
      <path
         style="fill:#3e3a39"
         inkscape:connector-curvature="0"
         d="m 84.6,44.6 c -2.7,0 -15.9,0 -15.9,0 V 34 c 0,0 -0.1,-0.8 -0.9,-0.8 -0.8,0 -0.9,0.8 -0.9,0.8 V 59.5 C 58.4,59 51.4,52.1 51.4,43.6 c 0,-8.5 7.1,-16 16.6,-16 4.4,0 7.2,1.5 9.4,3 1.7,1.1 3.4,2.9 4.2,4.2 0.1,0.1 0.6,0.6 1.2,0.2 0.7,-0.4 0.3,-1.1 0.3,-1.2 -3.3,-4.8 -8.9,-8 -15.2,-8 -10,0 -18.2,7.7 -18.2,17.8 0,10 8.1,17.8 18.2,17.8 7.3,0 13.7,-4.2 16.7,-10.5 0.7,-1.5 1,-2.9 1.4,-4.6 0.1,-0.9 -0.3,-1.7 -1.4,-1.7 z m -0.9,3.1 c -1.4,4.7 -4.1,7.3 -6.1,8.7 -2.2,1.5 -5,3 -9,3.2 V 46.3 l 15.4,0 c 0,0 -0.2,1 -0.3,1.4 z"
         id="path4225" />
    </g>
  </g>
</svg>
