<?xml version="1.0" encoding="UTF-8" standalone="no"?>
<!-- Created with Inkscape (http://www.inkscape.org/) -->

<svg
   xmlns:dc="http://purl.org/dc/elements/1.1/"
   xmlns:cc="http://creativecommons.org/ns#"
   xmlns:rdf="http://www.w3.org/1999/02/22-rdf-syntax-ns#"
   xmlns:svg="http://www.w3.org/2000/svg"
   xmlns="http://www.w3.org/2000/svg"
   xmlns:sodipodi="http://sodipodi.sourceforge.net/DTD/sodipodi-0.dtd"
   xmlns:inkscape="http://www.inkscape.org/namespaces/inkscape"
   width="76.199997"
   height="76.199997"
   id="svg4988"
   version="1.1"
   inkscape:version="0.48.4 r9939"
   sodipodi:docname="New document 17">
  <defs
     id="defs4990" />
  <sodipodi:namedview
     id="base"
     pagecolor="#ffffff"
     bordercolor="#666666"
     borderopacity="1.0"
     inkscape:pageopacity="0.0"
     inkscape:pageshadow="2"
     inkscape:zoom="2.8"
     inkscape:cx="76.539273"
     inkscape:cy="3.5036359"
     inkscape:document-units="px"
     inkscape:current-layer="layer1"
     showgrid="false"
     fit-margin-top="0"
     fit-margin-left="0"
     fit-margin-right="0"
     fit-margin-bottom="0"
     inkscape:window-width="472"
     inkscape:window-height="383"
     inkscape:window-x="573"
     inkscape:window-y="368"
     inkscape:window-maximized="0" />
  <metadata
     id="metadata4993">
    <rdf:RDF>
      <cc:Work
         rdf:about="">
        <dc:format>image/svg+xml</dc:format>
        <dc:type
           rdf:resource="http://purl.org/dc/dcmitype/StillImage" />
        <dc:title></dc:title>
      </cc:Work>
    </rdf:RDF>
  </metadata>
  <g
     inkscape:label="Layer 1"
     inkscape:groupmode="layer"
     id="layer1"
     transform="translate(-56.185716,-311.40504)">
    <circle
       style="fill:#efefef"
       sodipodi:ry="38.099998"
       sodipodi:rx="38.099998"
       sodipodi:cy="963.70001"
       sodipodi:cx="115.4"
       transform="translate(-21.114287,-614.19497)"
       cx="115.4"
       cy="963.70001"
       r="38.099998"
       id="circle4191"
       d="m 153.5,963.70001 c 0,21.04205 -17.05795,38.09999 -38.1,38.09999 -21.042047,0 -38.099997,-17.05794 -38.099997,-38.09999 0,-21.04205 17.05795,-38.1 38.099997,-38.1 21.04205,0 38.1,17.05795 38.1,38.1 z" />
    <g
       transform="translate(-21.114287,-614.19497)"
       id="g4401">
      <circle
         style="fill:#d2e4f5"
         sodipodi:ry="34.400002"
         sodipodi:rx="34.400002"
         sodipodi:cy="963.70001"
         sodipodi:cx="115.7"
         d="m 150.1,963.70001 c 0,18.9986 -15.40141,34.4 -34.4,34.4 -18.998599,0 -34.400005,-15.4014 -34.400005,-34.4 0,-18.99859 15.401406,-34.4 34.400005,-34.4 18.99859,0 34.4,15.40141 34.4,34.4 z"
         cx="115.7"
         cy="963.70001"
         r="34.400002"
         id="circle4403" />
      <path
         style="fill:#efefef"
         inkscape:connector-curvature="0"
         d="m 136.7,963.2 c 0,4.3 0,7.1 -0.1,11.3 l -42.1,-0.2 c 0,-3 0,-6.2 0.1,-11.3 0,-10.3 9.5,-18.7 21.1,-18.6 11.6,0.1 21,8.5 21,18.8 z"
         id="path4405" />
      <path
         style="fill:#898989"
         inkscape:connector-curvature="0"
         d="m 133.4,965.7 c 0,3.3 0,5.5 0,8.8 l -35.6,-0.2 c 0,-2.3 0,-4.8 0,-8.8 0,-8 8,-14.5 17.9,-14.5 9.8,0.1 17.7,6.7 17.7,14.7 z"
         id="path4407" />
      <path
         style="fill:#595757"
         inkscape:connector-curvature="0"
         d="m 99.5,963.9 c 0,0 0.3,-3.9 4.7,-7.5 4.3,-3.5 8.1,-3.4 8.1,-3.4 0.9,0.9 4.6,5.4 -1.7,10.7 -1.4,1.1 -7.3,4.6 -11.1,0.2 z"
         id="path4409" />
      <circle
         style="fill:#faee00"
         sodipodi:ry="0.80000001"
         sodipodi:rx="0.80000001"
         sodipodi:cy="936.5"
         sodipodi:cx="126.6"
         d="m 127.4,936.5 c 0,0.44183 -0.35817,0.8 -0.8,0.8 -0.44183,0 -0.8,-0.35817 -0.8,-0.8 0,-0.44183 0.35817,-0.8 0.8,-0.8 0.44183,0 0.8,0.35817 0.8,0.8 z"
         cx="126.6"
         cy="936.5"
         r="0.80000001"
         id="circle4411" />
      <circle
         style="fill:#faee00"
         sodipodi:ry="1.5"
         sodipodi:rx="1.5"
         sodipodi:cy="939.70001"
         sodipodi:cx="100.2"
         d="m 101.7,939.70001 c 0,0.82843 -0.67158,1.5 -1.5,1.5 -0.82843,0 -1.500003,-0.67157 -1.500003,-1.5 0,-0.82842 0.671573,-1.5 1.500003,-1.5 0.82842,0 1.5,0.67158 1.5,1.5 z"
         cx="100.2"
         cy="939.70001"
         r="1.5"
         id="circle4413" />
      <circle
         style="fill:#faee00"
         sodipodi:ry="1"
         sodipodi:rx="1"
         sodipodi:cy="950.20001"
         sodipodi:cx="139.39999"
         d="m 140.39999,950.20001 c 0,0.55229 -0.44771,1 -1,1 -0.55228,0 -1,-0.44771 -1,-1 0,-0.55228 0.44772,-1 1,-1 0.55229,0 1,0.44772 1,1 z"
         cx="139.39999"
         cy="950.20001"
         r="1"
         id="circle4415" />
      <circle
         style="fill:#faee00"
         sodipodi:ry="0.80000001"
         sodipodi:rx="0.80000001"
         sodipodi:cy="951"
         sodipodi:cx="86.099998"
         d="m 86.899998,951 c 0,0.44183 -0.358172,0.8 -0.8,0.8 -0.441827,0 -0.8,-0.35817 -0.8,-0.8 0,-0.44183 0.358173,-0.8 0.8,-0.8 0.441828,0 0.8,0.35817 0.8,0.8 z"
         cx="86.099998"
         cy="951"
         r="0.80000001"
         id="circle4417" />
      <circle
         style="fill:#faee00"
         sodipodi:ry="2.0999999"
         sodipodi:rx="2.0999999"
         sodipodi:cy="963.5"
         sodipodi:cx="144"
         d="m 146.1,963.5 c 0,1.1598 -0.9402,2.1 -2.1,2.1 -1.1598,0 -2.1,-0.9402 -2.1,-2.1 0,-1.1598 0.9402,-2.1 2.1,-2.1 1.1598,0 2.1,0.9402 2.1,2.1 z"
         cx="144"
         cy="963.5"
         r="2.0999999"
         id="circle4419" />
      <path
         style="fill:#b5b5b6"
         inkscape:connector-curvature="0"
         d="M 137.5,981.3 92,981.1 c -1,0 -1.9,-0.9 -1.9,-1.9 l 0,-3 c 0,-1 0.9,-1.9 1.9,-1.9 l 45.5,0.2 c 1,0 1.9,0.9 1.9,1.9 l 0,3 c 0,1.1 -0.8,1.9 -1.9,1.9 z"
         id="path4421" />
      <polygon
         style="fill:#efefef"
         points="88.4,979.5 142.8,979.7 142.7,990.3 88.3,990 88.4,984.7 "
         id="polygon4423" />
      <rect
         style="fill:#efefef"
         x="114.9"
         y="939.70001"
         transform="matrix(1,0.00468252,-0.00468252,1,4.4161,-0.5316)"
         width="1.6"
         height="6.4000001"
         id="rect4425" />
      <circle
         style="fill:#efefef"
         sodipodi:ry="2.5999999"
         sodipodi:rx="2.5999999"
         sodipodi:cy="938.29999"
         sodipodi:cx="115.6"
         d="m 118.2,938.29999 c 0,1.43594 -1.16406,2.6 -2.6,2.6 -1.43594,0 -2.6,-1.16406 -2.6,-2.6 0,-1.43594 1.16406,-2.6 2.6,-2.6 1.43594,0 2.6,1.16406 2.6,2.6 z"
         cx="115.6"
         cy="938.29999"
         r="2.5999999"
         id="circle4427" />
      <circle
         style="fill:#faee00"
         sodipodi:ry="1"
         sodipodi:rx="1"
         sodipodi:cy="960.5"
         sodipodi:cx="90.800003"
         d="m 91.800003,960.5 c 0,0.55228 -0.447715,1 -1,1 -0.552285,0 -1,-0.44772 -1,-1 0,-0.55228 0.447715,-1 1,-1 0.552285,0 1,0.44772 1,1 z"
         cx="90.800003"
         cy="960.5"
         r="1"
         id="circle4429" />
      <path
         style="fill:#879cbb"
         inkscape:connector-curvature="0"
         d="m 137.6,990.3 c -1.2,1 -3.5,2.5 -4.8,3.3 -5.2,3.1 -11.4,4.6 -17.3,4.5 -7,0 -13,-1.6 -18.4,-5.2 -1.3,-0.9 -2.6,-1.8 -3.8,-2.9 l 44.3,0.3 z"
         id="path4431" />
      <path
         style="fill:#f39800"
         inkscape:connector-curvature="0"
         d="m 96,977.7 -0.8,0 c -0.4,0 -0.7,-0.3 -0.7,-0.7 l 0,0 c 0,-0.4 0.3,-0.7 0.7,-0.7 l 0.8,0 c 0.4,0 0.7,0.3 0.7,0.7 l 0,0 c 0.1,0.4 -0.3,0.7 -0.7,0.7 z"
         id="path4433" />
      <path
         inkscape:connector-curvature="0"
         d="m 99.8,977.7 -0.8,0 c -0.4,0 -0.7,-0.3 -0.7,-0.7 l 0,0 c 0,-0.4 0.3,-0.7 0.7,-0.7 l 0.8,0 c 0.4,0 0.7,0.3 0.7,0.7 l 0,0 c 0,0.4 -0.3,0.7 -0.7,0.7 z"
         id="path4435" />
      <polygon
         style="fill:#898989"
         points="88.4,979.6 93.4,990.1 88.3,990 "
         id="polygon4437" />
      <polygon
         style="fill:#898989"
         points="142.8,979.8 137.7,990.2 142.7,990.3 "
         id="polygon4439" />
    </g>
  </g>
</svg>
