<?xml version="1.0" encoding="UTF-8" standalone="no"?>
<!-- Created with Inkscape (http://www.inkscape.org/) -->

<svg
   xmlns:dc="http://purl.org/dc/elements/1.1/"
   xmlns:cc="http://creativecommons.org/ns#"
   xmlns:rdf="http://www.w3.org/1999/02/22-rdf-syntax-ns#"
   xmlns:svg="http://www.w3.org/2000/svg"
   xmlns="http://www.w3.org/2000/svg"
   xmlns:sodipodi="http://sodipodi.sourceforge.net/DTD/sodipodi-0.dtd"
   xmlns:inkscape="http://www.inkscape.org/namespaces/inkscape"
   width="76.199997"
   height="76.199997"
   id="svg4795"
   version="1.1"
   inkscape:version="0.48.4 r9939"
   sodipodi:docname="New document 11">
  <defs
     id="defs4797" />
  <sodipodi:namedview
     id="base"
     pagecolor="#ffffff"
     bordercolor="#666666"
     borderopacity="1.0"
     inkscape:pageopacity="0.0"
     inkscape:pageshadow="2"
     inkscape:zoom="1.979899"
     inkscape:cx="34.350838"
     inkscape:cy="39.371865"
     inkscape:document-units="px"
     inkscape:current-layer="layer1"
     showgrid="false"
     fit-margin-top="0"
     fit-margin-left="0"
     fit-margin-right="0"
     fit-margin-bottom="0"
     inkscape:window-width="472"
     inkscape:window-height="383"
     inkscape:window-x="675"
     inkscape:window-y="339"
     inkscape:window-maximized="0" />
  <metadata
     id="metadata4800">
    <rdf:RDF>
      <cc:Work
         rdf:about="">
        <dc:format>image/svg+xml</dc:format>
        <dc:type
           rdf:resource="http://purl.org/dc/dcmitype/StillImage" />
        <dc:title></dc:title>
      </cc:Work>
    </rdf:RDF>
  </metadata>
  <g
     inkscape:label="Layer 1"
     inkscape:groupmode="layer"
     id="layer1"
     transform="translate(-336.9,-494.26219)">
    <circle
       style="fill:#efefef"
       sodipodi:ry="38.099998"
       sodipodi:rx="38.099998"
       sodipodi:cy="706.09998"
       sodipodi:cx="111"
       transform="translate(264,-173.73779)"
       cx="111"
       cy="706.09998"
       r="38.099998"
       id="circle4195"
       d="m 149.1,706.09998 c 0,21.04204 -17.05795,38.09999 -38.1,38.09999 -21.042048,0 -38.099998,-17.05795 -38.099998,-38.09999 0,-21.04205 17.05795,-38.1 38.099998,-38.1 21.04205,0 38.1,17.05795 38.1,38.1 z" />
    <circle
       style="fill:#905e65"
       sodipodi:ry="34.400002"
       sodipodi:rx="34.400002"
       sodipodi:cy="706.09998"
       sodipodi:cx="111"
       transform="translate(264,-173.73779)"
       cx="111"
       cy="706.09998"
       r="34.400002"
       id="circle4385"
       d="m 145.4,706.09998 c 0,18.99859 -15.4014,34.4 -34.4,34.4 -18.998596,0 -34.400002,-15.40141 -34.400002,-34.4 0,-18.9986 15.401406,-34.40001 34.400002,-34.40001 18.9986,0 34.4,15.40141 34.4,34.40001 z" />
    <circle
       style="fill:#ffffff"
       sodipodi:ry="28.700001"
       sodipodi:rx="28.700001"
       sodipodi:cy="706.09998"
       sodipodi:cx="111"
       transform="translate(264,-173.73779)"
       cx="111"
       cy="706.09998"
       r="28.700001"
       id="circle4387"
       d="m 139.7,706.09998 c 0,15.85057 -12.84943,28.7 -28.7,28.7 -15.850573,0 -28.700001,-12.84943 -28.700001,-28.7 0,-15.85058 12.849428,-28.70001 28.700001,-28.70001 15.85057,0 28.7,12.84943 28.7,28.70001 z" />
    <circle
       style="fill:#905e65"
       sodipodi:ry="23.299999"
       sodipodi:rx="23.299999"
       sodipodi:cy="706.09998"
       sodipodi:cx="111"
       transform="translate(264,-173.73779)"
       cx="111"
       cy="706.09998"
       r="23.299999"
       id="circle4389"
       d="m 134.3,706.09998 c 0,12.86823 -10.43177,23.29999 -23.3,23.29999 -12.868234,0 -23.299999,-10.43176 -23.299999,-23.29999 0,-12.86824 10.431765,-23.3 23.299999,-23.3 12.86823,0 23.3,10.43176 23.3,23.3 z" />
    <path
       style="fill:#534349"
       inkscape:connector-curvature="0"
       d="m 384.1,559.66221 3.9,4.7 c 0,0 7.5,-2.6 14,-10.4 5.2,-6.2 6.7,-14.4 6.7,-14.4 l -5.4,-2.7 -19.2,22.8 z"
       id="path4391" />
    <path
       style="fill:#dcdddd"
       inkscape:connector-curvature="0"
       d="m 380.2,555.16221 3.8,4.5 c 0,0 8.8,-2.2 14.2,-10.1 4.2,-6.2 5,-12.7 5,-12.7 l -5,-3 -18,21.3 z"
       id="path4393" />
    <path
       style="fill:#534349"
       inkscape:connector-curvature="0"
       d="m 375.3,549.56221 4.9,5.6 c 0,0 9.4,-1.8 14.3,-10 3.9,-6.5 3.8,-11.4 3.8,-11.4 l -9.1,-5.7 -13.9,21.5 z"
       id="path4395" />
    <circle
       style="fill:#7989b3"
       sodipodi:ry="17.1"
       sodipodi:rx="17.1"
       sodipodi:cy="706.09998"
       sodipodi:cx="111"
       transform="translate(264,-173.73779)"
       cx="111"
       cy="706.09998"
       r="17.1"
       id="circle4397"
       d="m 128.1,706.09998 c 0,9.44407 -7.65593,17.1 -17.1,17.1 -9.44407,0 -17.1,-7.65593 -17.1,-17.1 0,-9.44407 7.65593,-17.1 17.1,-17.1 9.44407,0 17.1,7.65593 17.1,17.1 z" />
    <polygon
       style="fill:#ffffff"
       transform="translate(264,-173.73779)"
       points="98.1,701.8 107.5,700.5 111.7,692 115.8,700.5 125.2,701.8 118.4,708.4 120,717.7 111.7,713.3 103.3,717.7 104.9,708.4 "
       id="polygon4399" />
  </g>
</svg>
